<svg width="17" height="20" viewBox="0 0 17 20" fill="none" xmlns="http://www.w3.org/2000/svg">
<path d="M0.961426 19.9231C0.961426 15.7597 4.33651 12.3846 8.49989 12.3846C12.6633 12.3846 16.0383 15.7597 16.0383 19.9231H14.1537C14.1537 16.8006 11.6224 14.2692 8.49989 14.2692C5.37735 14.2692 2.84604 16.8006 2.84604 19.9231H0.961426ZM8.49989 11.4423C5.37614 11.4423 2.84604 8.91221 2.84604 5.78846C2.84604 2.66471 5.37614 0.134615 8.49989 0.134615C11.6236 0.134615 14.1537 2.66471 14.1537 5.78846C14.1537 8.91221 11.6236 11.4423 8.49989 11.4423ZM8.49989 9.55769C10.5824 9.55769 12.2691 7.87096 12.2691 5.78846C12.2691 3.70596 10.5824 2.01923 8.49989 2.01923C6.41739 2.01923 4.73066 3.70596 4.73066 5.78846C4.73066 7.87096 6.41739 9.55769 8.49989 9.55769Z" fill="white"/>
</svg>
